<!-- Generator: Adobe Illustrator 25.2.1, SVG Export Plug-In  -->
<svg version="1.0" xmlns="http://www.w3.org/2000/svg" xmlns:xlink="http://www.w3.org/1999/xlink" x="0px" y="0px" width="300px"
	 height="300px" viewBox="0 0 300 300" style="overflow:visible;enable-background:new 0 0 300 300;" xml:space="preserve">
<style type="text/css">
	.st0{fill-rule:evenodd;clip-rule:evenodd;fill:#006B4F;}
	.st1{fill-rule:evenodd;clip-rule:evenodd;fill:#FFFFFF;}
	.st2{fill:none;stroke:#C3C5C7;stroke-width:0.0233;}
	.st3{fill-rule:evenodd;clip-rule:evenodd;fill:#ED7D22;}
	.st4{fill-rule:evenodd;clip-rule:evenodd;fill:#D04B79;}
	.st5{fill-rule:evenodd;clip-rule:evenodd;fill:#83AC40;}
	.st6{fill-rule:evenodd;clip-rule:evenodd;fill:#F5AB6F;}
	.st7{fill:#D04B79;}
</style>
<defs>
</defs>
<g>
	<path class="st0" d="M150,0c82.84,0,150,67.16,150,150c0,82.84-67.16,150-150,150C67.16,300,0,232.84,0,150C0,67.16,67.16,0,150,0
		L150,0z M150,0"/>
	<path class="st1" d="M150,43.63C91.25,43.63,43.62,91.25,43.62,150c0,58.75,47.63,106.38,106.38,106.38
		c58.75,0,106.37-47.62,106.37-106.38C256.37,91.25,208.75,43.63,150,43.63L150,43.63z M150,43.63"/>
	<path class="st2" d="M150,43.63C91.25,43.63,43.62,91.25,43.62,150c0,58.75,47.63,106.38,106.38,106.38
		c58.75,0,106.37-47.62,106.37-106.38C256.37,91.25,208.75,43.63,150,43.63L150,43.63z M150,43.63"/>
	<path class="st3" d="M149.32,54.22l7.44,21.02l9.64-19.65l3.67,22l12.91-17.68l-0.2,22.3l15.78-15.17l-4.07,21.93l18.18-12.2
		l-7.82,20.89l20.02-8.86l-11.33,19.22l21.25-5.25l-14.49,16.95l21.84-1.47l-17.22,14.18l21.76,2.34l-19.41,10.98l21.02,6.08
		l-21.02,7.44l19.65,9.64l-22,3.68l17.68,12.91l-22.3-0.2l15.17,15.78l-21.93-4.07l12.2,18.18l-20.89-7.82l8.85,20.02l-19.21-11.33
		l5.25,21.25l-16.95-14.49l1.47,21.84l-14.18-17.22l-2.34,21.76l-10.98-19.41l-6.08,21.02l-7.44-21.02l-9.64,19.65l-3.67-22
		l-12.91,17.68l0.2-22.3l-15.78,15.17l4.07-21.93l-18.18,12.2l7.82-20.89l-20.02,8.85l11.33-19.21l-21.25,5.25L79.7,185.3
		l-21.84,1.47l17.22-14.18l-21.76-2.34l19.41-10.98L51.7,153.2l21.02-7.44l-19.65-9.64l22-3.67L57.4,119.53l22.3,0.2l-15.17-15.78
		l21.93,4.07l-12.2-18.18l20.89,7.82L86.3,77.66l19.21,11.32l-5.25-21.25l16.95,14.49l-1.47-21.84l14.18,17.21l2.34-21.76
		l10.98,19.41L149.32,54.22z M149.32,54.22"/>
	<path class="st1" d="M150,75.87c42.33,0,76.65,34.32,76.65,76.65c0,42.33-34.32,76.65-76.65,76.65
		c-42.33,0-76.65-34.32-76.65-76.65C73.35,110.19,107.67,75.87,150,75.87L150,75.87z M150,75.87"/>
	<path class="st3" d="M150,77.74c41.3,0,74.78,33.48,74.78,74.77c0,41.3-33.48,74.78-74.78,74.78c-41.3,0-74.77-33.48-74.77-74.78
		C75.22,111.22,108.7,77.74,150,77.74L150,77.74z M150,77.74"/>
	<path class="st1" d="M149.98,150.37c6.78-1.66,13.73-2.49,20.71-2.49c29.21,0,56.26,14.61,72.36,38.89l1.72,2.61H55.22l1.72-2.61
		c16.1-24.29,43.15-38.89,72.36-38.89C136.36,147.87,143.3,148.73,149.98,150.37L149.98,150.37z M149.98,150.37"/>
	<path class="st4" d="M170.69,149.55c29.64,0,55.73,15.16,70.96,38.14h-41.39c-5.57-8.41-2.74-4.14,0,0H58.34
		c15.23-22.98,41.32-38.14,70.96-38.14c7.14,0,14.08,0.88,20.7,2.54C156.63,150.44,163.56,149.55,170.69,149.55L170.69,149.55z
		 M170.69,149.55"/>
	<path class="st1" d="M152.12,144.08v23.34c0,1.16-0.95,2.12-2.12,2.12c-1.17,0-2.12-0.95-2.12-2.12v-23.31
		c-3.78,1.24-7.94,1.7-11.54-0.28c-4.65-2.56-6.84-8.37-8.16-13.21l-0.45-1.64l1.64-0.43c4.08-1.07,9.06-1.96,13.25-0.57
		c-0.71-1.44-1.15-3.01-1.19-4.7c-0.11-5.31,3.83-10.11,7.36-13.67l1.2-1.21l1.2,1.21c3.53,3.56,7.47,8.36,7.36,13.67
		c-0.04,1.71-0.48,3.28-1.2,4.73c4.21-1.43,9.24-0.54,13.35,0.54l1.65,0.43l-0.45,1.64c-1.32,4.84-3.51,10.64-8.16,13.21
		C160.12,145.82,155.92,145.34,152.12,144.08L152.12,144.08z M152.12,144.08"/>
	<path class="st5" d="M150,128.82c0.23,0,0.43,0.19,0.43,0.43v35.72c0,0.24-0.19,0.43-0.43,0.43c-0.24,0-0.43-0.19-0.43-0.43v-35.72
		C149.57,129.02,149.76,128.82,150,128.82L150,128.82z M150,128.82"/>
	<path class="st5" d="M170.28,130.18c-3.05,11.16-8.12,16.39-19.85,11.46C152.02,129.02,159.09,127.24,170.28,130.18L170.28,130.18z
		 M129.81,130.18c3.05,11.16,8.12,16.39,19.85,11.46C148.06,129.02,140.99,127.24,129.81,130.18L129.81,130.18z M150,110.79
		c-8.14,8.22-10.13,15.23,0,22.92C160.13,126.02,158.13,119.01,150,110.79L150,110.79z M150,110.79"/>
	<path class="st0" d="M58.19,203.76c18.47,31.48,52.67,52.62,91.81,52.62c39.09,0,73.25-21.08,91.73-52.5
		c-2.6,0.39-4.71,1.07-5.77,2.2l-0.16,0.16l-0.19,0.12c-19.62,12.38-48.72,7.45-68.47-5.5c-8.35-5.47-14.02-13.16-16.72-22.52
		c-2.7,9.36-8.37,17.05-16.72,22.52c-19.75,12.95-48.85,17.88-68.47,5.5l-0.19-0.12l-0.16-0.16
		C63.71,204.82,61.21,204.11,58.19,203.76L58.19,203.76z M58.19,203.76"/>
	<path class="st1" d="M150,5.62C70.26,5.62,5.62,70.26,5.62,150c0,79.74,64.64,144.38,144.38,144.38
		c79.74,0,144.38-64.64,144.38-144.38C294.38,70.26,229.74,5.62,150,5.62L150,5.62z M150,46.77c57.02,0,103.24,46.22,103.24,103.23
		c0,57.02-46.22,103.24-103.24,103.24S46.76,207.02,46.76,150C46.76,92.98,92.98,46.77,150,46.77L150,46.77z M150,46.77"/>
	<path class="st1" d="M149.87,151.62l0.33-1.85l0.22,0.54l0.23-0.55l0.33,1.87l1.6,3.8c6.91,16.34,20.55,24.07,37.71,25.4
		c5.31,0.41,10.74,0.19,16.03-0.5c-7.46-1.67-15.04-4.95-17.32-11.64c-0.87-2.54-0.82-5.26-0.11-7.82c0.31-1.11,0.81-2.45,1.42-3.43
		l0.9-1.48l1.52,0.83c1.55,0.84,3.04,1.78,4.6,2.61c1.99,1.06,4.03,1.95,6.18,2.63c6.46,2.03,13.17,1.89,19.76,0.6
		c7.17-1.41,14.99-2.47,22.3-1.79c5.06,0.47,9.35,1.76,13.94,3.89c2.42,1.13,4.76,2.4,7.15,3.59c2.67,1.34,5.36,2.57,8.17,3.59
		c3.38,1.23,13.04,0.85,16.86,0.65l0.92-0.05c-1.77,11.34-4.86,22.25-9.12,32.55l-0.42,0.01c-4.16,0.08-13.24,0.55-16.27,3.79
		l-0.16,0.17l-0.2,0.12c-8.99,5.68-19.11,9.59-29.5,11.77c-21.03,4.41-45.11,2.02-63.37-9.95c-11.92-7.81-19.79-18.96-23.17-32.57
		c-3.38,13.62-11.25,24.76-23.17,32.57c-18.25,11.97-42.34,14.36-63.37,9.95c-10.39-2.18-20.51-6.09-29.5-11.77l-0.2-0.12
		l-0.16-0.17c-3.14-3.36-12.75-3.76-17.11-3.8l-0.43,0c-4.26-10.32-7.36-21.24-9.13-32.6l0.94,0.06c3.97,0.24,14.24,0.66,17.72-0.61
		c2.81-1.03,5.5-2.25,8.17-3.59c2.38-1.2,4.73-2.47,7.15-3.59c4.58-2.14,8.88-3.42,13.93-3.89c7.32-0.68,15.13,0.38,22.3,1.79
		c6.59,1.29,13.31,1.44,19.76-0.6c2.15-0.68,4.19-1.57,6.18-2.63c1.56-0.83,3.06-1.76,4.6-2.61l1.52-0.83l0.9,1.48
		c0.6,0.99,1.11,2.33,1.42,3.43c0.71,2.57,0.76,5.28-0.11,7.82c-2.28,6.69-9.86,9.97-17.32,11.64c5.3,0.7,10.73,0.92,16.04,0.5
		c17.16-1.33,30.79-9.06,37.7-25.4L149.87,151.62z M149.87,151.62"/>
	<path class="st6" d="M9.31,174.39c1.92,10.04,4.37,19.67,8.25,28.86c7.55,0.06,14.68,1.03,17.8,4.37
		c27.14,17.12,65.75,18.33,90.91,1.83c29.64-19.44,23.67-53.3,23.67-53.3c-16.42,38.81-66.18,23.9-66.18,23.9
		c36.67-2.95,25.23-21.66,25.23-21.66c-5.14,2.8-13.74,8.78-31.76,6.02c-30.25-7.26-33.73,3.05-50.59,9.21
		C22.49,175.13,10.96,174.49,9.31,174.39L9.31,174.39z M282.22,203.27c3.88-9.18,6.66-18.82,8.57-28.85
		c-3.36,0.18-12.87,0.55-16.58-0.81c-16.86-6.16-20.34-16.47-50.59-9.21c-18.02,2.76-26.62-3.22-31.76-6.02
		c0,0-11.45,18.71,25.22,21.66c0,0-49.76,14.91-66.18-23.9c0,0-5.97,33.86,23.67,53.3c25.16,16.5,63.77,15.3,90.91-1.83
		C268.5,204.4,274.95,203.4,282.22,203.27L282.22,203.27z M282.22,203.27"/>
	<polygon class="st4" points="263.54,74.87 252.79,76.57 257.75,66.89 251.8,58.71 243.46,77.71 234.95,83.89 240.31,91.28 
		248.83,85.09 269.33,82.83 	"/>
	<path class="st4" d="M214.28,45.08c1.25-2.8,1.84-5.36,1.79-7.68c-0.05-2.32-0.74-4.4-2.06-6.26c-0.7-0.95-1.62-1.81-2.77-2.6
		c-1.15-0.78-3-1.75-5.57-2.89l-10.09-4.49l-11.57,25.98l8.54,3.8c2.81,1.25,4.89,2.08,6.24,2.48c1.35,0.41,2.53,0.6,3.56,0.59
		c2.62,0,4.94-0.75,6.95-2.26C211.31,50.25,212.97,48.02,214.28,45.08z M205.9,41.35c-1.07,2.39-2.21,3.88-3.43,4.45
		c-1.21,0.57-2.86,0.39-4.94-0.53l-2.24-1l5.71-12.82l2.34,1.04c1.97,0.88,3.15,1.99,3.54,3.33
		C207.27,37.17,206.95,39.01,205.9,41.35z"/>
	<path class="st4" d="M175.46,16.06l-3.04,17.27c-0.29,1.61-0.81,2.71-1.58,3.25c-0.77,0.56-1.92,0.7-3.43,0.43
		c-1.56-0.28-2.62-0.81-3.16-1.61c-0.55-0.79-0.68-1.99-0.4-3.58l3.05-17.27l-9-1.58l-3.17,17.96c-0.62,3.5,0.05,6.38,2.01,8.64
		c1.96,2.26,5.1,3.77,9.42,4.53c4.3,0.76,7.74,0.41,10.33-1.04c2.59-1.45,4.19-3.93,4.81-7.45l3.17-17.96L175.46,16.06z"/>
	<polygon class="st4" points="137.93,14.24 134.21,24.47 128.16,15.44 118.11,16.67 130.69,33.18 131.97,43.63 141.03,42.52 
		139.75,32.07 147.71,13.04 	"/>
	<polygon class="st4" points="99.8,22.87 103.73,31.69 95.95,35.15 92.03,26.33 83.68,30.05 95.25,56.03 103.6,52.32 99.11,42.25 
		106.89,38.79 111.37,48.85 119.71,45.14 108.15,19.15 	"/>
	<path class="st4" d="M83.36,48.95c-1.23-0.41-2.61-0.36-4.13,0.14c0.52-1.19,0.72-2.34,0.58-3.45c-0.14-1.11-0.61-2.17-1.4-3.18
		c-1.01-1.29-2.17-2.15-3.47-2.58c-1.31-0.43-2.7-0.42-4.17,0.05c-0.83,0.27-1.74,0.71-2.72,1.32c-0.98,0.61-2.46,1.68-4.44,3.23
		l-9.19,7.18l17.51,22.41l9.92-7.75c2.11-1.65,3.56-2.91,4.35-3.77c0.79-0.87,1.4-1.76,1.83-2.68c0.64-1.35,0.86-2.74,0.65-4.14
		c-0.22-1.41-0.84-2.78-1.88-4.11C85.74,50.25,84.59,49.36,83.36,48.95z M68.39,55.14l-3.02-3.86l2-1.56
		c1.58-1.24,2.7-1.89,3.35-1.96c0.65-0.06,1.26,0.27,1.84,1.01c0.55,0.7,0.73,1.35,0.56,1.97c-0.17,0.61-0.76,1.3-1.76,2.09
		L68.39,55.14z M80.12,58.43c-0.2,0.69-0.87,1.47-1.97,2.32l-3.33,2.61l-3.23-4.13l3.27-2.56c1.13-0.88,2.05-1.35,2.77-1.4
		c0.72-0.06,1.37,0.28,1.95,1.02C80.16,57.03,80.34,57.74,80.12,58.43z"/>
	<path class="st4" d="M53.19,99.14l5.28-7.26l-2.4-3.1l5.32-7.33l3.67,1.36l5.32-7.33L35.9,69.14L53.19,99.14z M52.22,83.92
		l-3.16-5.81l6.53,1.17L52.22,83.92z"/>
	<path class="st4" d="M208.8,58.18l6.75,5.92l3.31-2.1l6.81,5.97l-1.69,3.53l6.81,5.97l9.46-33.75L208.8,58.18z M228.35,62.39
		l-4.31-3.78l6.08-2.62L228.35,62.39z"/>
	<path class="st4" d="M71.24,239.64l2.02,2.46l-4.63,3.53l-0.99-0.31c-0.8-0.33-1.44-0.8-1.92-1.38c-0.52-0.64-0.78-1.37-0.78-2.2
		c0.01-0.36,0.08-0.79,0.21-1.27c0.32,0.09,0.67,0.11,1.08,0.07c0.83-0.01,1.5-0.21,2.01-0.6c0.93-0.72,1.42-1.76,1.47-3.14
		c0.04-1.38-0.28-2.5-0.98-3.36c-0.22-0.27-0.41-0.47-0.55-0.61c-0.14-0.13-0.38-0.32-0.73-0.55c-0.89-0.63-1.46-0.96-1.74-0.99
		l-0.98,2.04c0.21,0.02,0.7,0.21,1.48,0.56c0.92,0.48,1.56,0.94,1.92,1.38c0.58,0.71,0.84,1.32,0.78,1.81
		c-0.04,0.33-0.25,0.64-0.63,0.93c-0.95,0.73-2.18,0.68-3.7-0.15l-1.89-1.58l-0.78,2.11c0.68,0.84,1.57,1.48,2.65,1.93l-0.29,1.11
		c-0.35,0.86-0.88,1.56-1.58,2.1c-1.01,0.77-2.04,1.1-3.1,1.01c-1.06-0.1-1.92-0.56-2.59-1.38c-1.39-1.7-1.41-3.82-0.05-6.36
		c0.86-1.55,1.6-2.56,2.21-3.02c0.27-0.2,0.48-0.31,0.63-0.31l-0.7-0.4c-0.18,0.05-0.73,0.78-1.64,2.19
		c-1.09,1.73-1.84,3.31-2.22,4.77c-0.52,2.05-0.28,3.69,0.73,4.92c0.78,0.95,1.71,1.53,2.8,1.74c1.1,0.21,2.13-0.05,3.09-0.78
		c0.85-0.65,1.53-1.39,2.04-2.23c0.3-0.49,0.49-0.92,0.57-1.28l0.04,1.13c0.11,0.75,0.32,1.42,0.62,2.01
		c0.55,0.68,1.12,1.18,1.7,1.51l-5.91,4.51l0.09,2.55l13.59-10.38l1.84,2.24l1.28-0.98l-5.59-6.84L71.24,239.64z M71.24,239.64"/>
	<path class="st4" d="M97.26,271.84l1.19-2.24c-0.07,0.12-0.73,0.27-1.99,0.44c-1.54,0.13-2.69,0.01-3.47-0.37
		c-1.49-0.73-2.39-1.72-2.71-2.97c-0.04-0.28-0.02-0.83,0.06-1.66c0.97,0.48,1.99,0.62,3.05,0.44c1.06-0.18,1.87-0.8,2.41-1.83
		c0.3-0.56,0.45-1.26,0.46-2.1c-0.02-1.03-0.18-1.73-0.47-2.11l4.43,2.17l0.74-1.4l-8.54-4.19l-0.74,1.4l3.59,1.76l0.21,0.69
		c0.03,0.67-0.21,1.48-0.73,2.46c-0.43,0.8-1.28,1.14-2.56,1c-0.8-0.13-1.35-0.27-1.65-0.42l-0.32-0.16
		c-0.69,1.31-0.84,3.01-0.46,5.11c0.34,1.82,1.28,3.1,2.81,3.85c0.8,0.39,1.83,0.55,3.1,0.46L97.26,271.84z M97.26,271.84"/>
	<path class="st4" d="M98.84,260.97l2.34,1.04l-6.51,13.76l1.27,2.21l7.16-15.12l2.71,1.2l0.68-1.43l-6.97-3.08L98.84,260.97z
		 M98.84,260.97"/>
	<path class="st4" d="M112.21,265.52l9.33,1.75l0.61,0.83l0.39,1c0.09,0.3,0.1,0.61,0.03,0.93c-0.24,1.17-1.19,1.84-2.86,2.03
		l-1.22-0.02l-1.22-0.16l0.75,2.28l1.74,0.01l0.42-0.03l0.66-0.16l0.43-0.1l0.94,1.18c0.56,0.99,0.73,2.03,0.51,3.13
		c-0.18,0.89-0.85,1.59-1.98,2.08c-0.48,0.17-0.99,0.29-1.54,0.35c-0.54,0.06-1.04,0.05-1.49-0.03c-1.92-0.36-3.31-1.42-4.16-3.17
		c-0.64-1.21-0.96-2.76-0.98-4.64l0.16-2.39l-0.77,0.14c-0.16,0.2-0.12,1.29,0.13,3.27s0.79,3.76,1.62,5.36
		c1.1,2.11,2.58,3.33,4.43,3.68c1.42,0.27,2.63,0.12,3.61-0.46c0.97-0.63,1.59-1.64,1.88-3.03c0.21-1.05,0.15-2.06-0.19-3.03
		c-0.38-1.19-0.91-2.06-1.61-2.62l0.56-0.57l0.48-0.73l0.31-0.79c0.17-0.85,0.17-1.66,0-2.43c-0.18-0.77-0.49-1.36-0.95-1.78
		l5.84,1.1l0.31-1.55l-15.85-2.98L112.21,265.52z M112.21,265.52"/>
	<path class="st4" d="M128.04,268.56l8.3,0.84l-0.31,2.85l-4.44-0.45c-0.87-0.09-1.62,0.37-2.27,1.39
		c-0.49,0.89-0.78,1.81-0.89,2.76c-0.17,1.51,0.3,2.93,1.39,4.27c1.1,1.34,2.46,2.1,4.1,2.26l1.13,0.01l0.56-0.09l0.57-0.19
		l1.86,4.37l1.04-0.53l-2.63-3.96l0.9-0.58c0.64-0.57,1.01-1.25,1.1-2.03c0.06-0.53-0.06-1.03-0.35-1.48
		c-0.24-0.45-0.63-0.69-1.16-0.75c-0.43-0.04-0.83,0.11-1.18,0.44c-0.35,0.34-0.56,0.73-0.6,1.17c-0.05,0.48,0.07,0.91,0.37,1.27
		l-0.54,0.27l-0.68,0.17l-0.68-0.07c-1.76-0.18-2.96-0.61-3.62-1.32c-0.5-0.54-0.69-1.37-0.57-2.48c0.09-0.83,0.41-1.56,0.97-2.19
		c0.55-0.62,1.14-0.9,1.77-0.84l5.56,0.56l0.51-4.66l4.08,0.41l0.17-1.56l-14.3-1.45L128.04,268.56z M128.04,268.56"/>
	<path class="st4" d="M154.08,279.9l-0.09-2.52c0.01,0.14-0.5,0.58-1.51,1.31c-1.28,0.83-2.35,1.27-3.22,1.3
		c-1.67,0.05-2.96-0.39-3.86-1.34c-0.18-0.22-0.44-0.72-0.78-1.47c1.09-0.04,2.05-0.38,2.89-1.04c0.84-0.66,1.23-1.57,1.19-2.74
		c-0.02-0.63-0.24-1.31-0.66-2.04c-0.54-0.89-1.03-1.44-1.47-1.63l4.97-0.17l-0.06-1.57l-9.58,0.32l0.06,1.57l4.03-0.14l0.52,0.5
		c0.36,0.57,0.56,1.4,0.6,2.49c0.03,0.9-0.55,1.59-1.74,2.07c-0.77,0.26-1.32,0.4-1.66,0.41l-0.36,0.01
		c0.05,1.46,0.78,3.03,2.17,4.68c1.21,1.43,2.68,2.12,4.4,2.06c0.89-0.03,1.87-0.38,2.94-1.05L154.08,279.9z M154.08,279.9"/>
	<path class="st4" d="M150.01,269.6l2.58-0.11l0.75,15.13l2.18,1.41l-0.83-16.63l2.97-0.12l-0.08-1.57l-7.65,0.32L150.01,269.6z
		 M150.01,269.6"/>
	<path class="st4" d="M181.97,272.76l-0.62-2.3l-0.89,0.88c-0.85,0.67-1.62,1.1-2.32,1.28c-0.66,0.17-1.22,0.15-1.7-0.04l-0.44-0.25
		l-0.1-1.06l-0.32-1.87c-0.14-0.52-0.4-1.2-0.78-2.04l-0.3-0.57l3.37-0.86l-0.41-1.52l-9.34,2.37l0.41,1.52l4.04-1.02l1.41,5.2
		l-2.11,0.54c-0.14,0.03-0.27,0.15-0.39,0.35l-0.05,0.52c0.11,0.41,0.39,0.88,0.83,1.41c0.26,0.32,0.54,0.62,0.83,0.91
		c0.29,0.29,0.66,0.63,1.12,1.02c1.19,1.07,2.67,2.21,4.45,3.42l2.35,1.61l0.59-0.59l-0.34-0.13l-0.96-0.51l-2.12-1.3l-2.82-2.1
		l-1.66-1.28c0.57-0.29,1.13-0.82,1.68-1.58c0.55-0.77,0.74-1.44,0.58-2.03l1.22,0.63c0.95,0.36,1.68,0.48,2.2,0.34l1.05-0.3
		c0.21-0.05,0.42-0.11,0.63-0.16c0.22-0.13,0.37-0.21,0.46-0.26L181.97,272.76z M181.97,272.76"/>
	<path class="st4" d="M176.48,266.29l2.47-0.72l4.5,14.5l2.46,0.86l-4.94-15.94l2.85-0.82l-0.47-1.51l-7.34,2.12L176.48,266.29z
		 M176.48,266.29"/>
	<path class="st4" d="M192.25,261.17l-0.56-1.48l-8.53,2.99l0.56,1.48L192.25,261.17z M198.18,270.63l-0.87-2.3
		c0,0.15-0.41,0.69-1.24,1.62c-1.05,1.11-2.21,1.89-3.48,2.34c-0.89,0.31-1.58,0.34-2.07,0.09c-0.49-0.25-0.87-0.7-1.11-1.36
		c-0.37-0.98-0.29-1.86,0.26-2.64c0.55-0.78,1.52-1.41,2.93-1.9l0.92-0.21l0.92-0.14l-1.72-1.59c-2.02,0.71-3.36,1.35-4.02,1.93
		c-1.28,1.04-1.63,2.33-1.05,3.87c0.5,1.31,1.46,2.29,2.88,2.93c1.43,0.64,2.85,0.71,4.26,0.22c0.82-0.29,1.62-0.84,2.42-1.67
		l0.52-0.55L198.18,270.63z M198.18,270.63"/>
	<path class="st4" d="M190.09,262l2.38-0.93l5.96,14.03l2.54,0.63l-6.55-15.42l2.76-1.08l-0.62-1.46l-7.09,2.77L190.09,262z
		 M190.09,262"/>
	<path class="st4" d="M197.05,259.22l2.26-1.21l7.62,13.24l2.6,0.33l-8.38-14.56l2.61-1.39l-0.79-1.38l-6.7,3.58L197.05,259.22z
		 M197.05,259.22"/>
	<path class="st4" d="M198.44,256.85l0.28-0.17c-0.56-0.08-1.13-0.34-1.72-0.8c-0.25-0.21-0.5-0.45-0.77-0.72
		c-0.26-0.28-0.49-0.56-0.69-0.86c-0.54-0.84-0.81-1.66-0.81-2.47c0.01-0.81,0.39-1.44,1.14-1.9c0.43-0.26,0.98-0.51,1.66-0.75
		l0.37-0.1l-0.05-0.34c-1.06-0.35-2.02-0.27-2.88,0.25c-0.8,0.48-1.32,1.22-1.56,2.21c-0.24,1-0.06,1.95,0.53,2.86
		c0.59,0.91,1.51,1.64,2.74,2.18l0.75,0.29L198.44,256.85z M198.44,256.85"/>
	<path class="st4" d="M209.06,252.14l-0.91-1.3l-6.59,4.28l0.91,1.3L209.06,252.14z M214.82,256.62l-1.04-1.48l-6.92,4.5
		c-0.36,0.23-0.41,0.54-0.14,0.93c0.34,0.48,1.23,1,2.68,1.55c1.45,0.55,2.38,0.69,2.8,0.41c0.22-0.14,0.28-0.35,0.18-0.62
		l-1.79-2.55L214.82,256.62z M214.82,256.62"/>
	<path class="st4" d="M208.29,252.74l2-1.56l9.89,11.77l2.62-0.11l-10.87-12.93l2.31-1.81l-1.03-1.22l-5.95,4.64L208.29,252.74z
		 M208.29,252.74"/>
	<path class="st4" d="M213.78,248.43l1.9-1.67l10.63,11.19l2.61-0.25l-11.68-12.3l2.19-1.93l-1.1-1.16l-5.64,4.97L213.78,248.43z
		 M213.78,248.43"/>
	<path class="st4" d="M224.34,237.91l-1.25-1.02l-4.89,5.56l1.25,1.02l1.83-2.08l4.61,3.77l-0.96,1.09l-0.05,0.33l0.18,0.33
		c0.4,0.42,1.26,0.62,2.6,0.62c1.34,0,2.2-0.22,2.59-0.67c0.19-0.21,0.21-0.38,0.06-0.5l-1.75-1.43l3.25-3.7l-1.44-1.18l-3.25,3.7
		l-4.61-3.77L224.34,237.91z M224.34,237.91"/>
	<path class="st4" d="M223.16,239.39l1.52-2l12.7,9l2.5-0.74l-13.95-9.89l1.75-2.31l-1.32-0.93l-4.51,5.93L223.16,239.39z
		 M223.16,239.39"/>
	<polygon class="st4" points="246.82,239.89 248,241 239.22,245.98 238.15,245.83 	"/>
	<path class="st4" d="M105.89,255.44c1,0,1.82,0.87,1.82,1.93s-0.81,1.93-1.82,1.93c-1,0-1.82-0.86-1.82-1.93
		S104.89,255.44,105.89,255.44L105.89,255.44z M105.89,255.44"/>
	<path class="st4" d="M153.4,262.01c1,0,1.82,0.86,1.82,1.93c0,1.07-0.81,1.93-1.82,1.93c-1,0-1.82-0.87-1.82-1.93
		C151.59,262.87,152.4,262.01,153.4,262.01L153.4,262.01z M153.4,262.01"/>
	<path class="st4" d="M81.66,249.69l-2.57,2.9c-0.47-0.48-0.78-0.89-0.92-1.22c-0.49-0.96-0.35-1.86,0.4-2.71
		c0.38-0.43,0.87-0.68,1.46-0.78c0.59-0.1,1.1,0.03,1.52,0.38c0.39,0.32,0.56,0.55,0.52,0.7L81.66,249.69z M85.76,253.62l1.06-1.2
		l-2.12-1.74l-0.57,1.6L85.76,253.62z M81.4,261.77l1.18-1.33l-4.63-3.81l4.31-4.86c0.59-0.67,0.77-1.48,0.54-2.44
		c-0.23-0.95-0.73-1.74-1.48-2.36c-0.63-0.51-1.24-0.79-1.86-0.81c-0.61-0.03-1.2,0.28-1.77,0.92c-0.96,1.08-1.11,2.37-0.46,3.86
		c0.43,0.81,0.83,1.37,1.22,1.69l0.36,0.29l-2.27,2.55l-1.49-1.23c-0.22-0.18-0.43-0.16-0.64,0.07c-0.27,0.3-0.38,1.23-0.34,2.78
		c0.04,1.55,0.18,2.46,0.43,2.72c0.22,0.18,0.42,0.19,0.6,0.03l1.68-1.89L81.4,261.77z M81.4,261.77"/>
	
		<rect x="83.6" y="250" transform="matrix(0.053 -0.9986 0.9986 0.053 -170.7582 323.9807)" class="st1" width="3.65" height="4.03"/>
	<path class="st4" d="M84.84,252.76l2.11,1.43l-9,12.38l0.83,2.39l9.9-13.6l2.44,1.65l0.94-1.29l-6.28-4.25L84.84,252.76z
		 M84.84,252.76"/>
	<g>
		<g>
			<g>
				<path class="st7" d="M16.19,135.08c0.4-0.4,0.96-0.65,1.57-0.65h1.25v-1.25h-1.25c-1.92,0-3.47,1.56-3.47,3.47
					c0,1.92,1.56,3.47,3.47,3.47h1.25v-1.25h-1.25c-0.62,0-1.17-0.25-1.57-0.65c-0.4-0.4-0.65-0.96-0.65-1.57
					C15.54,136.04,15.78,135.49,16.19,135.08z"/>
			</g>
			<polygon class="st7" points="24.9,150.8 24.9,156.69 16.5,156.69 16.5,159.19 27.41,159.19 27.41,150.8 33.29,150.8 
				33.29,159.19 35.8,159.19 35.8,148.29 27.41,148.29 27.41,142.4 35.8,142.4 35.8,139.9 24.9,139.9 24.9,148.29 19.01,148.29 
				19.01,139.9 16.5,139.9 16.5,150.8 24.9,150.8 			"/>
			<rect x="24.9" y="148.29" class="st7" width="2.51" height="2.51"/>
			<polyline class="st7" points="19.01,148.29 19.01,139.9 16.5,139.9 16.5,150.8 			"/>
			<polyline class="st7" points="27.41,142.4 35.8,142.4 35.8,139.9 24.9,139.9 			"/>
			<polyline class="st7" points="33.29,150.8 33.29,159.19 35.8,159.19 35.8,148.29 			"/>
			<polyline class="st7" points="24.9,156.69 16.5,156.69 16.5,159.19 27.41,159.19 			"/>
			<g>
				<path class="st7" d="M40.61,139.58c0.4,0.4,0.65,0.96,0.65,1.57v1.25h1.25v-1.25c0-1.92-1.56-3.47-3.47-3.47
					c-1.92,0-3.47,1.56-3.47,3.47v1.25h1.25v-1.25c0-0.62,0.25-1.17,0.65-1.57c0.4-0.4,0.96-0.65,1.57-0.65
					C39.66,138.93,40.21,139.18,40.61,139.58z"/>
			</g>
			<g>
				<path class="st7" d="M36.12,164c-0.4,0.4-0.95,0.65-1.57,0.65h-1.25v1.25h1.25c1.92,0,3.47-1.56,3.47-3.47
					c0-1.92-1.56-3.47-3.47-3.47h-1.25v1.25h1.25c0.62,0,1.17,0.25,1.57,0.65c0.4,0.4,0.65,0.96,0.65,1.57
					C36.77,163.05,36.52,163.6,36.12,164z"/>
			</g>
			<g>
				<path class="st7" d="M11.69,159.51c-0.4-0.4-0.65-0.95-0.65-1.57v-1.25H9.79v1.25c0,1.92,1.56,3.47,3.47,3.47
					c1.92,0,3.47-1.55,3.47-3.47v-1.25h-1.25v1.25c0,0.62-0.25,1.17-0.65,1.57c-0.4,0.4-0.96,0.65-1.57,0.65
					C12.65,160.16,12.1,159.91,11.69,159.51z"/>
			</g>
		</g>
	</g>
	<g>
		<g>
			<g>
				<path class="st7" d="M263.88,135.08c0.4-0.4,0.95-0.65,1.57-0.65h1.25v-1.25h-1.25c-1.92,0-3.47,1.56-3.47,3.47
					c0,1.92,1.56,3.47,3.47,3.47h1.25v-1.25h-1.25c-0.62,0-1.17-0.25-1.57-0.65c-0.4-0.4-0.65-0.96-0.65-1.57
					C263.23,136.04,263.48,135.49,263.88,135.08z"/>
			</g>
			<polygon class="st7" points="272.59,150.8 272.59,156.69 264.2,156.69 264.2,159.19 275.1,159.19 275.1,150.8 280.99,150.8 
				280.99,159.19 283.5,159.19 283.5,148.29 275.1,148.29 275.1,142.4 283.5,142.4 283.5,139.9 272.59,139.9 272.59,148.29 
				266.71,148.29 266.71,139.9 264.2,139.9 264.2,150.8 272.59,150.8 			"/>
			<rect x="272.59" y="148.29" class="st7" width="2.51" height="2.51"/>
			<polyline class="st7" points="266.71,148.29 266.71,139.9 264.2,139.9 264.2,150.8 			"/>
			<polyline class="st7" points="275.1,142.4 283.5,142.4 283.5,139.9 272.59,139.9 			"/>
			<polyline class="st7" points="280.99,150.8 280.99,159.19 283.5,159.19 283.5,148.29 			"/>
			<polyline class="st7" points="272.59,156.69 264.2,156.69 264.2,159.19 275.1,159.19 			"/>
			<g>
				<path class="st7" d="M288.31,139.58c0.4,0.4,0.65,0.96,0.65,1.57v1.25h1.25v-1.25c0-1.92-1.56-3.47-3.47-3.47
					c-1.92,0-3.47,1.56-3.47,3.47v1.25h1.25v-1.25c0-0.62,0.25-1.17,0.65-1.57c0.4-0.4,0.96-0.65,1.57-0.65
					C287.35,138.93,287.9,139.18,288.31,139.58z"/>
			</g>
			<g>
				<path class="st7" d="M283.81,164c-0.4,0.4-0.95,0.65-1.57,0.65h-1.25v1.25h1.25c1.92,0,3.47-1.56,3.47-3.47
					c0-1.92-1.56-3.47-3.47-3.47h-1.25v1.25h1.25c0.62,0,1.17,0.25,1.57,0.65c0.4,0.4,0.65,0.96,0.65,1.57
					C284.46,163.05,284.22,163.6,283.81,164z"/>
			</g>
			<g>
				<path class="st7" d="M259.39,159.51c-0.4-0.4-0.65-0.95-0.65-1.57v-1.25h-1.25v1.25c0,1.92,1.56,3.47,3.47,3.47
					c1.92,0,3.47-1.55,3.47-3.47v-1.25h-1.25v1.25c0,0.62-0.25,1.17-0.65,1.57c-0.4,0.4-0.96,0.65-1.57,0.65
					C260.34,160.16,259.79,159.91,259.39,159.51z"/>
			</g>
		</g>
	</g>
</g>
</svg>
